# xmcd
#
# Track frame offsets:
#	150
#	17222
#	31370
#
# Disc length: 624 seconds
#
# Revision: 0
# Processed by: cddbd v1.4PL0 Copyright (c) Steve Scherf et al.
# Submitted via: audiograbber 1.82.02
#
DISCID=1c026e03
DTITLE=JW Roy And The One Night Band - Deeper Shades
DYEAR=1999
DGENRE=Country
TTITLE0=Deeper Shades
TTITLE1=Learning To Crawl
TTITLE2=A Song For
EXTD=
EXTT0=
EXTT1=
EXTT2=
PLAYORDER=
